<svg xmlns="http://www.w3.org/2000/svg" width="800" height="400" viewBox="0 0 800 400">
  <defs>
    <filter id="glow">
      <feGaussianBlur stdDeviation="3" result="blur"/>
      <feMerge><feMergeNode in="blur"/><feMergeNode in="SourceGraphic"/></feMerge>
    </filter>
  </defs>
  <rect width="800" height="400" fill="#1A1917"/>
  <g opacity="0.06" stroke="#F5F0EB" stroke-width="1">
    <line x1="0" y1="80" x2="800" y2="80"/>
    <line x1="0" y1="160" x2="800" y2="160"/>
    <line x1="0" y1="240" x2="800" y2="240"/>
    <line x1="0" y1="320" x2="800" y2="320"/>
    <line x1="160" y1="0" x2="160" y2="400"/>
    <line x1="320" y1="0" x2="320" y2="400"/>
    <line x1="480" y1="0" x2="480" y2="400"/>
    <line x1="640" y1="0" x2="640" y2="400"/>
  </g>
  <circle cx="400" cy="200" r="120" fill="none" stroke="#2563EB" stroke-width="1" opacity="0.10"/>
  <circle cx="400" cy="200" r="80"  fill="none" stroke="#2563EB" stroke-width="1" opacity="0.15"/>
  <text x="400" y="185" font-family="Georgia,serif" font-size="52" font-weight="700"
    fill="#2563EB" text-anchor="middle" filter="url(#glow)" letter-spacing="10"
    opacity="0.6">AXIOM</text>
  <text x="400" y="218" font-family="'IBM Plex Mono',monospace" font-size="11"
    fill="#4A4540" text-anchor="middle" letter-spacing="5">TRADING INTELLIGENCE</text>
  <rect x="320" y="232" width="160" height="1" fill="#2563EB" opacity="0.3"/>
  <g stroke="#2563EB" stroke-width="1" fill="none" opacity="0.15">
    <polyline points="20,20 20,50 50,50"/>
    <polyline points="780,20 780,50 750,50"/>
    <polyline points="20,380 20,350 50,350"/>
    <polyline points="780,380 780,350 750,350"/>
  </g>
</svg>
